HIERARCHY
ROOT Hips
{
	OFFSET 0.00000 0.00000 0.00000
	CHANNELS 6 Xposition Yposition Zposition Zrotation Yrotation Xrotation
	JOINT LHipJoint
	{
		OFFSET 0 0 0
		CHANNELS 3 Zrotation Yrotation Xrotation
		JOINT LeftUpLeg
		{
			OFFSET 1.37733 -1.58235 0.71371
			CHANNELS 3 Zrotation Yrotation Xrotation
			JOINT LeftLeg
			{
				OFFSET 2.33951 -6.42775 0.00000
				CHANNELS 3 Zrotation Yrotation Xrotation
				JOINT LeftFoot
				{
					OFFSET 2.30523 -6.33358 0.00000
					CHANNELS 3 Zrotation Yrotation Xrotation
					JOINT LeftToeBase
					{
						OFFSET 0.05388 -0.14857 1.53863
						CHANNELS 3 Zrotation Yrotation Xrotation
						End Site
						{
							OFFSET 0.00000 -0.00000 0.79208
						}
					}
				}
			}
		}
	}
	JOINT RHipJoint
	{
		OFFSET 0 0 0
		CHANNELS 3 Zrotation Yrotation Xrotation
		JOINT RightUpLeg
		{
			OFFSET -1.47839 -1.58235 0.71371
			CHANNELS 3 Zrotation Yrotation Xrotation
			JOINT RightLeg
			{
				OFFSET -2.26534 -6.22397 0.00000
				CHANNELS 3 Zrotation Yrotation Xrotation
				JOINT RightFoot
				{
					OFFSET -2.27037 -6.23779 0.00000
					CHANNELS 3 Zrotation Yrotation Xrotation
					JOINT RightToeBase
					{
						OFFSET -0.09543 -0.26220 1.62615
						CHANNELS 3 Zrotation Yrotation Xrotation
						End Site
						{
							OFFSET -0.00000 -0.00000 0.83991
						}
					}
				}
			}
		}
	}
	JOINT LowerBack
	{
		OFFSET 0 0 0
		CHANNELS 3 Zrotation Yrotation Xrotation
		JOINT Spine
		{
			OFFSET 0.00101 1.81877 -0.00412
			CHANNELS 3 Zrotation Yrotation Xrotation
			JOINT Spine1
			{
				OFFSET 0.00322 1.81934 -0.03962
				CHANNELS 3 Zrotation Yrotation Xrotation
				JOINT Neck
				{
					OFFSET 0 0 0
					CHANNELS 3 Zrotation Yrotation Xrotation
					JOINT Neck1
					{
						OFFSET -0.13795 1.66192 0.22650
						CHANNELS 3 Zrotation Yrotation Xrotation
						JOINT Head
						{
							OFFSET 0.14844 1.65995 -0.39123
							CHANNELS 3 Zrotation Yrotation Xrotation
							End Site
							{
								OFFSET 0.04109 1.72502 -0.16783
							}
						}
					}
				}
				JOINT LeftShoulder
				{
					OFFSET 0 0 0
					CHANNELS 3 Zrotation Yrotation Xrotation
					JOINT LeftArm
					{
						OFFSET 3.25446 1.41983 0.32106
						CHANNELS 3 Zrotation Yrotation Xrotation
						JOINT LeftForeArm
						{
							OFFSET 4.05444 -0.00000 -0.00000
							CHANNELS 3 Zrotation Yrotation Xrotation
							JOINT LeftHand
							{
								OFFSET 3.21205 -0.00000 0.00000
								CHANNELS 3 Zrotation Yrotation Xrotation
								JOINT LeftFingerBase
								{
									OFFSET 0 0 0
									CHANNELS 3 Zrotation Yrotation Xrotation
									JOINT LeftHandIndex1
									{
										OFFSET 0.70741 -0.00000 0.00000
										CHANNELS 3 Zrotation Yrotation Xrotation
										End Site
										{
											OFFSET 0.57033 -0.00000 0.00000
										}
									}
								}
								JOINT LThumb
								{
									OFFSET 0 0 0
									CHANNELS 3 Zrotation Yrotation Xrotation
									End Site
									{
										OFFSET 0.57904 -0.00000 0.57904
									}
								}
							}
						}
					}
				}
				JOINT RightShoulder
				{
					OFFSET 0 0 0
					CHANNELS 3 Zrotation Yrotation Xrotation
					JOINT RightArm
					{
						OFFSET -3.30007 1.25485 0.33947
						CHANNELS 3 Zrotation Yrotation Xrotation
						JOINT RightForeArm
						{
							OFFSET -3.74048 -0.00000 -0.00000
							CHANNELS 3 Zrotation Yrotation Xrotation
							JOINT RightHand
							{
								OFFSET -3.16030 -0.00000 0.00000
								CHANNELS 3 Zrotation Yrotation Xrotation
								JOINT RightFingerBase
								{
									OFFSET 0 0 0
									CHANNELS 3 Zrotation Yrotation Xrotation
									JOINT RightHandIndex1
									{
										OFFSET -0.71703 -0.00000 0.00000
										CHANNELS 3 Zrotation Yrotation Xrotation
										End Site
										{
											OFFSET -0.57809 -0.00000 0.00000
										}
									}
								}
								JOINT RThumb
								{
									OFFSET 0 0 0
									CHANNELS 3 Zrotation Yrotation Xrotation
									End Site
									{
										OFFSET -0.58691 -0.00000 0.58691
									}
								}
							}
						}
					}
				}
			}
		}
	}
}
MOTION
Frames: 10
Frame Time: .0083333
26.3686 16.4201 0.9171 0 0 0 0 0 0 -21 0 0 0 0 0 0 0 0 0 0 0 0 0 0 21 0 0 0 0 0 0 0 0 0 0 0 0 0 0 0 0 0 0 0 0 0 0 -16 0 0 21 0 0 11 0 0 0 -8 0 0 0 0 0 0 0 0 0 0 0 0 0 0 0 0 0 0 0 0 8 0 0 0 0 0 0 0 0 0 0 0 0 0 0 0 0 0
25.8678 16.6970 1.0605 99.1493 86.4803 107.4470 0.0000 0.0000 0.0000 -24.9229 -5.2003 0.1758 0.0227 0.9731 2.6748 -0.0765 15.1285 9.7601 4.3077 -12.5590 -37.7393 0.0000 0.0000 0.0000 20.4602 14.6770 7.9674 -0.0226 0.9714 -2.6702 -2.6887 16.9705 -30.1474 -0.4016 -4.0688 11.2704 -2.6647 -0.1933 -4.7790 -0.0233 -0.1050 -0.1872 1.4641 -0.0800 2.4922 -4.3408 -2.5430 -24.0503 2.0242 -1.6326 38.6532 1.4929 -0.6230 18.8234 -0.0000 -0.0000 0.0000 -72.8689 -13.8188 -7.3538 4.5147 -7.7637 -0.3065 -0.0000 -0.0000 17.5271 25.4096 -16.8191 -7.8265 -7.1250 0.0000 -0.0000 -1.6126 11.4823 1.2598 -0.0000 -0.0000 0.0000 79.5894 10.1112 -22.6990 -6.9560 11.8468 -0.7226 0.0000 0.0000 65.7594 -26.0330 8.8228 -4.2844 7.1250 -0.0000 -0.0000 0.6277 -20.1794 0.3727
25.7583 16.8197 1.0679 103.3940 86.3955 111.9540 0.0000 0.0000 0.0000 -24.5708 -5.4108 -1.2548 0.0385 1.2670 3.4839 0.1786 14.0278 11.8434 4.2475 -12.4827 -37.4616 0.0000 0.0000 0.0000 20.0326 14.9662 6.8232 -0.0180 0.8670 -2.3828 -3.1292 14.6616 -32.1234 -0.4555 -4.3297 12.0061 -2.8534 -0.2380 -3.9257 -0.0029 -0.1815 0.1265 1.5869 -0.1231 2.3406 -4.3082 -2.5142 -23.7795 2.2318 -1.7134 38.3893 1.5608 -0.6205 18.6010 -0.0000 0.0000 0.0000 -68.3924 -13.8083 -10.7379 4.9637 -8.5233 -0.3701 -0.0000 -0.0000 16.4950 26.2281 -16.7776 -8.0939 -7.1250 0.0000 -0.0000 -1.0676 11.4050 0.8355 -0.0000 0.0000 0.0000 75.2926 10.3981 -25.6575 -6.7772 11.5520 -0.6863 0.0000 0.0000 64.2840 -27.0072 8.2186 -4.1672 7.1250 -0.0000 -0.0000 -0.1042 -20.7715 -0.0605
25.6355 16.9467 1.0758 106.9510 86.3132 115.7390 0.0000 0.0000 0.0000 -24.1774 -5.6789 -2.8053 0.0636 1.6274 4.4771 0.4455 12.9836 14.0119 4.0439 -12.2186 -36.5097 0.0000 0.0000 0.0000 19.5171 15.1855 5.4077 -0.0104 0.6593 -1.8117 -3.5973 11.1264 -34.3488 -0.6023 -4.9678 13.8167 -2.9578 -0.2426 -2.8863 -0.0341 -0.2121 0.5608 1.6134 -0.1430 2.2056 -4.3362 -2.5577 -23.4791 2.5123 -1.9276 37.9048 1.6357 -0.6743 18.2565 -0.0000 0.0000 0.0000 -63.3750 -13.5832 -14.3272 5.2929 -9.0778 -0.4205 -0.0000 -0.0000 16.0120 26.5003 -16.8450 -8.2213 -7.1250 0.0000 -0.0000 -0.8943 11.2898 0.7020 -0.0000 0.0000 0.0000 70.6142 10.1609 -28.2260 -6.6206 11.2931 -0.6553 0.0000 0.0000 62.7858 -28.2055 8.4504 -4.5064 7.1250 -0.0000 -0.0000 -0.9526 -20.4112 -0.5607
25.4976 17.0716 1.0791 109.8170 86.3239 118.9610 0.0000 0.0000 0.0000 -23.7202 -5.9691 -4.7469 0.1042 2.0811 5.7299 0.7270 12.4830 16.3974 3.7509 -11.8214 -35.1029 0.0000 0.0000 0.0000 18.9874 15.3564 3.5627 -0.0035 0.3823 -1.0505 -3.9119 7.7323 -36.0938 -0.7954 -5.6926 15.8951 -2.8622 -0.2443 -1.8106 -0.0567 -0.2431 1.0832 1.5374 -0.1609 2.1391 -4.3638 -2.5702 -23.1848 2.7372 -2.0806 37.2365 1.6904 -0.7177 17.8150 -0.0000 -0.0000 0.0000 -57.9557 -12.4936 -11.4616 5.8241 -9.9684 -0.5084 -0.0000 -0.0000 9.4774 26.2985 -15.7839 -7.6562 -7.1250 0.0000 -0.0000 -0.9298 12.4813 0.7070 -0.0000 -0.0000 0.0000 65.6530 9.2150 -29.5622 -6.6306 11.3097 -0.6573 0.0000 0.0000 61.1571 -28.6705 8.4426 -4.5900 7.1250 -0.0000 -0.0000 -1.2868 -20.3792 -0.7583
25.3492 17.1897 1.0816 112.0250 86.3839 121.6720 0.0000 0.0000 0.0000 -23.2148 -5.9875 -7.1423 0.1625 2.5973 7.1594 1.0422 12.0557 18.8837 3.6956 -11.7440 -34.8322 0.0000 0.0000 0.0000 18.4933 15.5404 1.5090 -0.0003 0.1177 -0.3233 -4.1065 5.1026 -37.3847 -1.0501 -6.5164 18.2904 -2.7743 -0.2861 -0.7978 0.0008 -0.3194 1.6772 1.5471 -0.2023 2.1839 -4.4056 -2.4994 -22.7705 2.8542 -2.0634 36.3977 1.7284 -0.7149 17.2537 -0.0000 0.0000 0.0000 -52.3874 -9.9453 -5.4782 6.8429 -11.6604 -0.6995 -0.0000 -0.0000 0.1329 25.6125 -13.9564 -6.5953 -7.1250 0.0000 -0.0000 -1.2423 14.5740 0.8899 -0.0000 0.0000 0.0000 60.4557 7.6659 -30.0868 -6.7492 11.5057 -0.6807 0.0000 0.0000 59.3855 -28.0731 7.7834 -4.1313 7.1250 -0.0000 -0.0000 -0.8985 -21.1743 -0.5134
25.1878 17.2978 1.0826 114.0160 86.4791 124.2460 0.0000 0.0000 0.0000 -22.6492 -5.7397 -9.8817 0.2406 3.1567 8.7152 1.2804 10.8500 20.4942 4.1330 -12.3354 -36.9289 0.0000 0.0000 0.0000 17.9538 15.0577 -1.1493 -0.0019 -0.2804 0.7704 -4.1203 2.7886 -37.8928 -1.2137 -6.9884 19.6811 -2.6455 -0.3246 0.2888 0.0698 -0.3850 2.3547 1.5477 -0.2361 2.2729 -4.3870 -2.3933 -22.4260 2.8767 -1.9786 35.5308 1.7259 -0.6910 16.7076 -0.0000 -0.0000 0.0000 -46.5977 -6.1872 1.3679 8.1686 -13.8259 -0.9920 -0.0000 0.0000 -9.2696 25.0236 -12.0421 -5.5625 -7.1250 0.0000 -0.0000 -1.5179 16.7352 1.0169 -0.0000 -0.0000 0.0000 55.1976 5.3859 -29.7268 -6.9046 11.7621 -0.7121 0.0000 0.0000 56.4925 -27.5883 7.0474 -3.6682 7.1250 -0.0000 -0.0000 -0.5874 -22.0392 -0.3241
25.0134 17.3901 1.0800 114.7310 86.4592 125.7130 0.0000 0.0000 0.0000 -22.3218 -5.4033 -13.0277 0.3534 3.8193 10.5689 1.4050 9.2609 21.2598 4.6094 -12.9300 -39.1070 0.0000 0.0000 0.0000 17.1794 13.7878 -4.6216 -0.0178 -0.8610 2.3664 -3.9684 0.2238 -37.8006 -1.1537 -6.8197 19.1823 -2.5704 -0.3581 1.3594 0.0633 -0.4295 3.1236 1.5022 -0.2576 2.4652 -4.4277 -2.3746 -22.1173 2.9648 -2.0338 34.5294 1.7310 -0.7251 16.1303 -0.0000 -0.0000 0.0000 -40.5191 -1.4670 8.5400 9.6579 -16.2028 -1.3780 -0.0000 0.0000 -18.0279 24.9185 -10.3558 -4.7738 -7.1250 0.0000 -0.0000 -1.4981 18.5898 0.9427 -0.0000 -0.0000 0.0000 50.1075 2.0504 -27.3028 -7.2644 12.3535 -0.7872 0.0000 0.0000 50.9462 -27.4985 6.1570 -3.1954 7.1250 -0.0000 -0.0000 -0.5652 -23.0459 -0.2989
24.8296 17.4563 1.0823 113.6490 86.3958 125.5720 0.0000 0.0000 0.0000 -22.1529 -5.0994 -16.5932 0.5204 4.6234 12.8376 1.4942 7.8521 21.8726 4.7213 -13.0629 -39.6042 0.0000 0.0000 0.0000 16.4002 12.7797 -8.3703 -0.0575 -1.5473 4.2562 -3.7549 -2.2393 -37.5320 -1.0621 -6.5524 18.3958 -2.6814 -0.3841 2.3732 0.0476 -0.4516 3.9601 1.5519 -0.2705 2.7631 -4.7433 -2.4752 -21.3748 3.3290 -2.2959 32.9106 1.8470 -0.8492 15.2008 -0.0000 -0.0000 0.0000 -34.2492 4.0245 15.7694 11.1191 -18.4705 -1.8135 -0.0000 0.0000 -26.0932 25.9739 -8.9901 -4.3534 -7.1250 0.0000 -0.0000 -0.6785 19.9992 0.4056 -0.0000 -0.0000 0.0000 45.3058 -2.2775 -23.6963 -7.8217 13.2635 -0.9108 0.0000 0.0000 43.7326 -27.3909 4.9872 -2.5791 7.1250 -0.0000 -0.0000 -0.5350 -24.3666 -0.2666
24.6367 17.4859 1.0922 113.0740 86.6346 125.9880 0.0000 0.0000 0.0000 -21.5489 -4.9196 -20.5204 0.7684 5.5975 15.6210 1.5289 6.3530 22.1709 4.7453 -13.0911 -39.7104 0.0000 0.0000 0.0000 16.0801 12.4515 -12.2886 -0.1441 -2.4463 6.7409 -3.4701 -3.8325 -36.7053 -1.0234 -6.4355 18.0534 -2.6491 -0.3788 3.4579 0.1295 -0.4231 4.8854 1.6224 -0.2531 3.1143 -4.9631 -2.4902 -20.5599 3.6062 -2.4379 30.9881 1.9254 -0.9279 14.1607 0.0000 -0.0000 0.0000 -28.1499 10.0322 22.5599 12.4261 -20.4406 -2.2489 -0.0000 0.0000 -33.6199 28.0272 -7.1688 -3.8005 -7.1250 0.0000 -0.0000 0.9007 21.8709 -0.5004 0.0000 -0.0000 0.0000 40.9643 -7.2439 -21.2835 -8.3839 14.1732 -1.0441 0.0000 0.0000 37.9339 -27.7712 3.7426 -1.9687 7.1250 -0.0000 -0.0000 -0.8658 -25.7515 -0.4037
